<?xml version="1.0" encoding="UTF-8" standalone="no"?>
<svg
   height="16px"
   viewBox="0 0 16 16"
   width="16px"
   version="1.1"
   id="svg4"
   sodipodi:docname="software-update-available-symbolic.svg"
   inkscape:version="1.1.2 (0a00cf5339, 2022-02-04)"
   xmlns:inkscape="http://www.inkscape.org/namespaces/inkscape"
   xmlns:sodipodi="http://sodipodi.sourceforge.net/DTD/sodipodi-0.dtd"
   xmlns="http://www.w3.org/2000/svg"
   xmlns:svg="http://www.w3.org/2000/svg">
  <defs
     id="defs8" />
  <sodipodi:namedview
     id="namedview6"
     pagecolor="#ffffff"
     bordercolor="#666666"
     borderopacity="1.0"
     inkscape:pageshadow="2"
     inkscape:pageopacity="0.0"
     inkscape:pagecheckerboard="0"
     showgrid="false"
     inkscape:zoom="51.875"
     inkscape:cx="7.9903614"
     inkscape:cy="8"
     inkscape:window-width="1920"
     inkscape:window-height="1008"
     inkscape:window-x="0"
     inkscape:window-y="0"
     inkscape:window-maximized="1"
     inkscape:current-layer="svg4" />
  <path
     d="M 8,16 C 7.742188,16 7.488281,15.902344 7.292969,15.707031 L 5.585938,14 H 3 C 2.449219,14 2,13.550781 2,13 V 10.414062 L 0.292969,8.7070308 c -0.3906252,-0.390625 -0.3906252,-1.0234371 0,-1.4140621 L 2,5.5859377 v -2.585938 c 0,-0.550781 0.449219,-1 1,-1 H 5.585938 L 7.292969,0.29296875 c 0.390625,-0.390625 1.023437,-0.390625 1.414062,0 L 10.414062,1.9999997 H 13 c 0.550781,0 1,0.449219 1,1 v 2.585938 l 1.707031,1.707031 c 0.390625,0.390625 0.390625,1.0234371 0,1.4140621 L 14,10.414062 V 13 c 0,0.550781 -0.449219,1 -1,1 H 10.414062 L 8.707031,15.707031 C 8.511719,15.902344 8.257812,16 8,16 Z m 0,-5 c 0.257812,0 0.511719,-0.09766 0.707031,-0.292969 l 2,-2.0000002 c 0.183594,-0.1875 0.289063,-0.441406 0.285157,-0.707031 H 11 v -1 H 9 v -2 H 7 v 2 H 5 v 1 h 0.00781 c -0.00391,0.265625 0.101563,0.519531 0.285157,0.707031 l 2,2.0000002 C 7.488281,10.902344 7.742188,11 8,11 Z m 0,0"
     fill="#2e3436"
     id="path2" />
</svg>
